<?xml version="1.0" encoding="UTF-8"?>
<svg xmlns="http://www.w3.org/2000/svg">
	<defs>
		<style>
      .cls-1 {
        fill: none;
      }

      .cls-1, .cls-2, .cls-3, .cls-4, .cls-5, .cls-6 {
        stroke-width: 0px;
      }

      .cls-3 {
        fill: #8b0801;
      }

      .cls-4 {
        fill: #9ae746;
      }

      .cls-5 {
        fill: #0794f9;
      }

      .cls-6 {
        fill: #fff;
      }
    </style>
	</defs>
	<g id="dots">
		<path class="cls-4" d="m42.4,487.8c.3,5.4-3.9,9.7-9.6,9.8-5.4.1-9.9-4.6-9.9-10.1.1-5.9,4.4-10,9.9-9.9,5.1.1,9.6,2.7,9.6,10.2Z"/>
		<path class="cls-4" d="m15.7,378.1c5.8-.1,10.6,4.8,10.7,10.6.1,5.5-4.8,10.7-11,10.8-5.6.1-10.6-5.1-10.6-10.6-.1-4.9,4.3-11,10.9-10.8h0Z"/>
		<path class="cls-4" d="m32.6,308.4c-.1,5.2-4.3,10.1-10.6,10.1-5.1,0-10.4-5.4-9.9-10.4.6-5.5,3.8-10.1,10.7-10,5.4.1,9.9,4.8,9.8,10.3h0Z"/>
		<path class="cls-4" d="m41.5,234.3c6.1-.1,10,5.5,9.8,10-.3,6-4.3,9.8-10.2,9.8-6.8-.1-9.8-5.4-9.7-10,.1-5.4,3.6-10,10.1-9.8Z"/>
		<path class="cls-4" d="m78.3,189.3c-.1,6.9-4.3,9.8-9.3,10-5.9.2-10-4.3-10.2-9.8-.2-4.6,4.4-10.2,9.7-10.1,6.2-.1,10.1,5,9.8,9.9h0Z"/>
		<path class="cls-4" d="m104.2,150.7c-4.3.1-9.9-3.3-9.9-10.2-.1-6.6,5.4-10,9.9-9.9,6.1.1,10.1,4.3,9.9,10.3-.1,5.8-3.8,9.6-9.9,9.8h0Z"/>
		<path class="cls-4" d="m156.5,99.2c0,5.9-3.9,9.8-9.7,9.9-5.9.1-10.2-5.1-10-10.1.4-6.2,3.9-10,10.3-9.9,5.6,0,9.3,4.2,9.4,10.1h0Z"/>
		<path class="cls-4" d="m195,55.5c5.4,0,10.1,4.7,10.1,10,0,5-5.2,10.2-10.3,10.2s-9.8-5-9.8-10.4c.1-5.8,4.2-9.9,10-9.8Z"/>
		<path class="cls-4" d="m257.3,40.3c.4,5.7-4.7,9.7-9.9,9.7-4.9,0-9.9-3.9-9.7-9.9.2-5.8,4.2-10.4,9.6-10.2,5.7.2,10,3.4,10,10.4Z"/>
		<path class="cls-4" d="m292.1,23.7c.1-5.4,4.8-10.3,9.9-10.3,5.5,0,10.1,5,9.9,10.7-.2,6.9-5.9,9.9-10.3,9.8-5.2,0-9.6-4.8-9.5-10.2h0Z"/>
		<path class="cls-5" d="m359.7,19.8c.1-10.9,8.1-16.3,16.6-17.4,8.9.9,16.3,7,16.7,17.1.3,8.8-7.2,16.9-16.8,16.9-9.2.1-17.2-8.4-16.5-16.6h0Z"/>
		<path class="cls-3" d="m450.4,31.7c-5.3-.1-8.7-3.8-8.6-9.3.1-5.4,3.9-9,9.4-9,4.6,0,9,4.1,8.8,9.7-.3,4.9-4.1,8.7-9.6,8.6h0Z"/>
		<path class="cls-3" d="m514.7,38.2c0,4.4-3.8,9.4-9.3,9.2-4.7-.1-8.9-4.5-8.8-9.3.1-5.2,4.1-9.4,9-9.3,3.9.1,9.2,3.3,9.1,9.4Z"/>
		<path class="cls-3" d="m558.5,53.7c5.4,0,9,3.8,9,9.4,0,4.9-3.9,8.7-8.8,8.8-4.9.1-9.4-4.2-9.3-9.3.2-5.6,4.1-9.1,9.1-8.9Z"/>
		<path class="cls-3" d="m616,95.8c0,5.8-3.7,9-9.3,8.9-4.5-.1-8.9-4.2-8.8-9,.1-5.4,5.3-9.5,9.6-9.4,3.9.1,9.2,4.3,8.5,9.5h0Z"/>
		<path class="cls-3" d="m650.1,145.7c-6.1-.1-8.9-4.8-9-9.3-.1-3.9,3.4-9.5,10-8.9,4.8.5,8.6,4.4,8.4,9.3-.2,4.7-4.8,9.1-9.4,8.9h0Z"/>
		<path class="cls-3" d="m677.7,184.6c.1-5.3,4.1-9.2,9.2-9.3,5.1-.1,8.9,4.7,8.8,9.7-.1,5-3.8,8.9-9,9-5.7.1-9.4-4.8-9-9.4h0Z"/>
		<path class="cls-3" d="m715.2,248.6c-6.2-.4-9.2-3.1-9.5-9-.4-6.2,5.4-10,9.1-10.1,5-.1,9.5,4.6,9.6,10,0,6-4.4,9.1-9.2,9.1h0Z"/>
		<path class="cls-3" d="m734.5,312.8c-4.8-.5-10-3.5-9.4-10.5.5-5.3,3.8-9.3,10.5-9,4.8.2,9.5,5,9,9.8-.5,5.8-3.9,9.5-10.1,9.7h0Z"/>
		<path class="cls-3" d="m732.9,383.5c0-5.7,4.4-10.1,10.1-10.3,5-.2,9.8,5.6,9.7,10-.2,6.9-4.6,10.4-10.1,10.4-5.4.1-9.7-3.4-9.7-10.1h0Z"/>
		<path class="cls-3" d="m717.7,482.4c-.2-4.4,4.1-9.6,9.5-9.6s9.7,4.6,9.5,9.2c-.3,6.3-3.6,10.1-9.6,10.1-5.1,0-9.4-3.6-9.4-9.7Z"/>
	</g>
	<g id="numbers">
		<path class="cls-2" d="m118.8,506.6c.1-4.2,2-7.3,5.6-9.3,5.5-3.1,10.3-2.1,14,3.1,4.1,6,8.2,12,12.1,18.1,2.7,4.1,2.1,9.3-1.6,12.6-3.5,3.2-7.8,4.6-12.4,2.5-1.1-.5-2.2-1.3-3.1-2.2-1-1-1.8-2.2-2.6-3.4-3.5-5.2-7-10.5-10.5-15.7-1-1.7-1.6-3.6-1.5-5.7h0Zm25.9,16.8c-.3-.6-.8-1.7-1.5-2.7-2.7-4.1-5.5-8.2-8.3-12.3-1-1.5-2.1-3-3.3-4.3-1.5-1.5-2.9-1.3-4.4.1-1.3,1.3-1.4,2.7-.2,4.5,3.5,5.3,6.9,10.5,10.5,15.7.6,1,1.6,1.8,2.6,2.4,2.1,1.1,4.7-.6,4.6-3.4h0Z"/>
		<path class="cls-2" d="m132.2,537.1c-.2,4.5-3.2,8.5-8,10.2-3.8,1.4-8.5,0-11.3-3.2-2.9-3.4-2.9-4,.9-6.2,2.2-1.3,2.3-1.3,4,.6.6.6,1.2,1.3,2,1.7,1.2.7,2.5.5,3.6-.3s1.3-1.9.9-3.2c-.8-2.6-2.2-4.8-4.2-6.6-1.5-1.3-2.6-1.4-4.3-.3-2,1.2-3.9,2.6-5.8,3.8-2.2,1.5-3,1.3-4.5-.8-3-4.4-5.9-8.7-8.9-13.1-.8-1.2-.7-1.7.3-2.7.2-.2.5-.4.7-.6,4.3-2.9,8.6-5.8,13-8.6.8-.5,1.9-1.5,2.8-.6,1.1,1.1,2,2.4,2.7,3.8.4.8-.6,1.5-1.4,2-2.5,1.5-4.9,3-7.3,4.6-.5.3-.9.7-1.3,1.1-.8.7-.9,1.5-.4,2.3.7,1.1,1.3,2.2,2,3.3,1,1.5,2,1.7,3.4.6,1.7-1.3,3.5-2.3,5.5-2.7,3.2-.6,6.1,0,8.4,2.2,2.6,2.4,4.3,5.5,5.9,8.7.8,1.1.9,2.6,1.3,4h0Z"/>
		<path class="cls-2" d="m649.9,545.7c-.1-1.7.4-3.4,1.4-5,3.2-4.9,6.4-9.8,9.6-14.6,1-1.5,1.9-3,3-4.3,3-3.7,8.9-4.1,12.1-1.5,1.5,1.2,3.2,1.9,4.1,3.8,1.5,3.3,1.4,6.5-.2,9.7-.8,1.6-1.9,2.9-2.9,4.4-2.8,4.2-5.6,8.4-8.2,12.6-1.5,2.4-3.8,3.8-6.2,5.1-1.9,1-3.8.5-5.6-.2-4.5-1.9-7.1-4.8-7.1-10h0Zm5.9,0c0,2.1.6,3.4,2,4.1,1.5.7,3,.7,4.3-.4.7-.6,1.4-1.3,1.9-2.1,3-4.4,6-8.9,8.9-13.4.8-1.3,1.5-2.6,2.1-4,.5-1.4.7-2.9-.5-4-1.3-1.2-2.9-1.2-4.5-.7-.8.3-1.6.8-2.2,1.4-1.1,1.2-2.1,2.6-3.1,4-1.5,2.2-2.8,4.4-4.3,6.7-1.4,2.2-2.9,4.4-4.2,6.7-.3.6-.4,1.5-.4,1.7h0Z"/>
		<path class="cls-2" d="m629.2,532.2c.2-1.9,1.4-3.8,2.8-5.5.3-.4,1.2-.5,1.7-.3.7.2,1.4.7,2.1,1.2,1,.6,1.1,1.5.5,2.5-.2.3-.4.7-.6,1-1.3,2.3-1,3.8.8,5.3,1.8,1.4,4.2,1.5,5.7-.2,1.8-1.9,3.4-4.1,4.1-6.7.5-1.7.2-3.3-1.2-4.4-1.5-1.2-3.2-2.4-4.9-3.4-3.4-2-3.5-2.4-1.4-5.7,2.4-3.8,4.8-7.5,7.3-11.2,1-1.6,1.8-1.8,3.3-.8,4,2.6,7.9,5.1,11.8,7.7,2.1,1.4,2.3,2.8.9,4.8-.8,1.1-1.3,1.3-2.4.6-2.6-1.7-5.2-3.4-7.8-5.2-2.3-1.6-3.3-1.5-4.8,1-.6,1-1.3,2-1.9,3.1-.8,1.5-.6,2.5.7,3.6.5.4,1,.8,1.6,1.1,4.8,1.9,6,10.5,2.8,14.2-1.6,1.8-2.5,4-4.2,5.8-3,3-6.3,3.7-10,2.1-3.9-2.1-6.8-5.3-6.9-10.6h0Z"/>
		<path class="cls-2" d="m617.2,524.6c-1.2-1-2.3-1.6-3.1-2.6-.7-.8,0-1.6.5-2.4.7-1.2,1.4-2.3,2.1-3.5,1-1.8,1-2-.8-3.3-1-.8-2-1.5-3.2-2.2-2.7-1.5-2.1-3.3-.3-5.5.8-.9,1.7-.5,2.5.2,1.3,1,2.7,2,4.1,2.9,1.6,1,2.2.8,3.3-.8,1-1.5,2-3,3.1-4.5,1-1.4,1.4-1.5,2.9-.6.1.1.3.2.4.3,1.9,1.2,2,1.6.9,3.4-.9,1.4-1.8,2.8-2.6,4.3-1.1,2-1,2.4.9,3.7,1.1.8,2.3,1.5,3.4,2.2,1.9,1.3,1.7,4.5-.3,5.5-.4.2-1.2,0-1.7-.3-1.2-.7-2.3-1.5-3.4-2.2-.7-.4-1.4-.7-2.1-1-1-.5-1.9-.2-2.5.8-.7,1.2-1.4,2.5-2.2,3.7-.4.7-1.1,1.2-1.9,1.9h0Z"/>
		<path class="cls-2" d="m87.2,557.7c-.5-.3-1-.4-1.3-.7-.5-.5-1-1-1.5-1.6-1.5-2.1-1.3-2.8.8-4.2,4.8-3.1,9.5-6.4,14.3-9.6.9-.6,1.8-1.3,2.8-1.8,1.3-.7,2.2-.5,3.1.7.1.1.2.3.3.4,2.1,3.2,1.7,3.5-1,5.3-5.2,3.4-10.3,7-15.5,10.4-.6.4-1.3.7-2,1.1h0Z"/>
		<path class="cls-6" d="m4,386.7c-.3.2-.4.3-.6.4-.1,0-.3-.2-.3-.3,0-.2.2-.3.3-.5.2.1.3.2.6.4h0Z"/>
		<path class="cls-6" d="m158.3,161.8c-.1.1-.2.2-.3.2-.1-.1-.2-.2-.2-.3.1-.1.2-.2.3-.2s.1.1.2.3Z"/>
	</g>
	<g id="markers">
		<path class="cls-4" d="m195,406.2c1.5,0,1.8.4,2.2,1.8,1.6,6.9,3.2,13.9,4.7,20.8.1.6.3,1.2.5,1.9.5,2.4.1,3.5-2,4.8-1.5,1-3.1,1.9-4.7,2.9-6,4-12,8-17.9,12-4.3,2.9-8.6,5.9-12.9,8.8-4.6,3.1-9.2,6-13.8,9.1-5.7,3.7-11.3,7.5-17,11.3-6.7,4.4-13.3,8.8-20,13.2-6.1,4.1-12.3,8.1-18.4,12.2-7.3,4.9-14.6,9.8-21.9,14.7-1.3.9-2.7,1.8-4,2.6-1.5.9-2.3.8-3.1-.8-1.5-3.2-2.9-6.4-4.3-9.6-3.8-8.5-6.8-17.4-10-26.2-1.2-3.4-2.2-6.8-3.2-10.3-2-7.4-4.1-14.8-5.9-22.2-1.2-5-2.2-10.1-3.2-15.2-.5-2.5-.2-3.2,2.3-3.8,2.5-.7,5.1-1.1,7.7-1.6,6.1-1.1,12.1-2.1,18.2-3.1,1.8-.3,3.6-.8,5.4-1.1,9-1.6,18.1-3.2,27.1-4.8,6.4-1.2,12.9-2.5,19.3-3.6,4.8-.9,9.6-1.6,14.4-2.5,5.5-1,11-2.1,16.5-3.2,4.5-.8,9-1.6,13.4-2.4,3.1-.6,6.3-1.2,9.4-1.8,6.4-1.2,12.7-2.3,19.1-3.4.8-.3,1.5-.4,2.1-.5h0Z"/>
		<path class="cls-4" d="m35,378.6c0-6.1-.1-12.2,0-18.2.1-2.8.5-5.6.9-8.3.2-1.3.9-1.7,2.2-1.7.4,0,.8.1,1.2.2,5.1.7,10.3,1.4,15.4,2.2,1.5.2,3,.6,4.5.8,5.5.9,11,1.7,16.5,2.6,5,.8,9.9,1.5,14.9,2.3,5.5.8,11,1.7,16.6,2.5,2.3.3,4.6.5,6.9.8,7.1,1.1,14.2,2.4,21.3,3.5,7.6,1.1,15.2,2.1,22.8,3.2,4.7.7,9.3,1.6,13.9,2.3,3.5.6,7.1,1,10.7,1.5,3.1.4,6.2.8,9.2,1.3,2.5.4,3.2,1.2,3.2,3.7.2,5.9.2,11.8.3,17.7,0,1.9-.5,2.4-2.3,2.7-8,1.5-16,3.1-24,4.5-4.6.9-9.3,1.5-13.9,2.4-2.7.5-5.3,1.1-7.9,1.6-3.2.6-6.4,1.1-9.7,1.7-4.3.8-8.6,1.6-12.9,2.3-6.2,1.1-12.4,2.3-18.6,3.4-4.4.8-8.8,1.6-13.2,2.4-5.3,1-10.5,1.9-15.8,2.9-4.1.7-8.2,1.5-12.2,2.3-2.6.5-5.2.9-7.8,1.4-4.9.9-9.9,1.8-14.8,2.7-.4.1-.8.2-1.2.2-1.9.2-2.7-.3-3-2.2-.4-2.4-.7-4.9-1-7.4-.6-4.8-1.1-9.6-1.7-14.5-.2-1.9-.3-3.8-.3-5.7-.2-5.6-.2-11.3-.2-17.1h0Z"/>
		<path class="cls-4" d="m37.1,338.9c.4-3.3.8-6.9,1.4-10.4,1.1-6.8,2.3-13.5,3.6-20.3.6-3,1.4-5.9,2.1-8.8.9-3.6,1.8-7.3,2.7-10.9.1-.4.2-.8.3-1.1.9-2.5,1.2-2.5,3.7-1.5,3.1,1.2,6.3,2.3,9.4,3.5,6.9,2.7,13.8,5.4,20.7,8.1,4.2,1.6,8.5,3.1,12.8,4.8,6,2.3,12,4.8,18,7.1,4.4,1.7,8.8,3.3,13.2,5,5.8,2.3,11.6,4.6,17.3,6.9,4.4,1.7,8.8,3.3,13.2,5,6.1,2.4,12.2,4.8,18.2,7.2,3.3,1.3,6.6,2.5,9.9,3.7,4,1.5,8,3.1,12,4.7,2.1.8,2.4,1.7,2,3.9-.6,3.6-1.1,7.2-1.6,10.9-.3,2.4-.6,4.7-1,7.1-.2,1.4-1.2,1.9-2.9,1.7-1.9-.2-3.8-.4-5.7-.8-3.1-.5-6.3-1.1-9.4-1.6-1.9-.3-3.8-.6-5.7-.9-3.2-.4-6.3-.8-9.5-1.3-2.3-.3-4.6-.6-6.9-1-5.7-.9-11.5-1.9-17.2-2.9-2.8-.4-5.5-.8-8.3-1.2-6.6-1-13.1-1.9-19.7-2.8-3.2-.4-6.3-.8-9.5-1.3-1.7-.3-3.4-.7-5.2-1-5.6-.9-11.2-1.8-16.8-2.6-2.7-.4-5.4-.7-8.1-1.1-4.3-.7-8.6-1.4-13-2.1-3.1-.5-6.2-.9-9.2-1.3-2.7-.4-5.4-.8-8.1-1.1-.3,0-.6-.1-.9-.2-1.5-.6-1.9-1.1-1.8-3.4h0Z"/>
		<path class="cls-4" d="m206.5,313.7c-.2.7-.3,1.4-.5,2.1-1.6,4.9-3.2,9.7-4.7,14.6-1.2,3.8-1.4,3.9-5.1,2.4-1.7-.7-3.4-1.3-5.2-1.9-7.2-2.8-14.5-5.5-21.7-8.3-7.7-3-15.4-6.1-23.2-9.1-3.1-1.2-6.3-2.3-9.4-3.5-6.9-2.7-13.8-5.5-20.7-8.2-3-1.2-6.1-2.3-9.2-3.5-8.6-3.3-17.1-6.7-25.7-10-6.7-2.6-13.4-5.2-20.1-7.8-2.6-1-5.2-2.1-7.7-3.2-2.2-1-2.6-1.6-1.8-3.9,2.8-8.1,5.6-16.1,8.6-24.1,1.6-4.2,3.5-8.3,5.3-12.3.8-1.8,1.6-3.5,2.5-5.2.7-1.4,1.4-1.5,2.7-.7,8,4.8,16,9.6,24,14.4,4.9,2.9,9.8,5.6,14.7,8.5,4.9,2.9,9.8,6,14.7,9,5,3,10.1,5.9,15.1,8.9s10,6.1,15,9c5.1,3.1,10.3,6,15.5,9.1,5.3,3.2,10.6,6.5,16,9.7,6.4,3.8,12.7,7.7,19.1,11.4,1.1.5,1.8,1.2,1.8,2.6h0Z"/>
		<path class="cls-4" d="m220.2,284.7c-.1.2-.2.8-.5,1.3-3.1,5.1-5.8,10.5-8.3,15.9-1,2.1-1.6,2.2-3.7.9-5-3-10-5.9-15-8.9-4.9-2.9-9.8-6-14.8-8.9-4.8-2.9-9.6-5.7-14.4-8.6-3.6-2.1-7.1-4.2-10.7-6.4-6.3-3.8-12.6-7.5-18.9-11.3-9.6-5.8-19.3-11.7-28.9-17.5-4.4-2.7-9-5.2-13.4-7.9-5.5-3.3-10.9-6.6-16.4-10-2.1-1.3-2.3-2-1.1-4.1,3.8-6.8,7.6-13.5,11.5-20.2,3.2-5.4,6.8-10.6,10.2-15.9,1.5-2.3,2.6-2.5,4.6-.8,7.7,6.5,15.3,13.1,23,19.5,3.2,2.7,6.5,5.1,9.7,7.8,4.3,3.6,8.6,7.4,12.9,11.1,3.7,3.2,7.5,6.2,11.2,9.3,2.8,2.4,5.6,4.8,8.4,7.2,3.3,2.8,6.6,5.5,9.9,8.3,4.5,3.8,9,7.6,13.5,11.4,3.4,2.9,6.9,5.7,10.3,8.6,3,2.6,6.1,5.2,9.1,7.8,3.3,2.8,6.7,5.7,10,8.5.9.7,1.8,1.3,1.8,2.9h0Z"/>
		<path class="cls-4" d="m134.4,137.6c.7.5,1.4,1,2,1.6,2.1,2.4,4.2,4.8,6.3,7.2,3,3.4,6,6.7,8.9,10.1,2.8,3.3,5.5,6.6,8.3,9.9,3.5,4,7,7.9,10.5,11.8,5.1,5.8,10.1,11.7,15.2,17.6,1.8,2.1,3.6,4.1,5.3,6.1,8.4,9.6,16.8,19.3,25.2,28.9,3.9,4.5,7.7,9,11.5,13.5,3.2,3.7,6.6,7.4,9.8,11.2,2,2.4,2,2.6.1,5.2-2.6,3.5-5.4,6.9-8,10.4-.9,1.1-1.7,2.4-2.6,3.5-1.1,1.4-1.8,1.5-3.2.3-5.3-4.5-10.6-9-15.9-13.4-4.1-3.5-8.3-7-12.4-10.5-3.9-3.3-7.8-6.6-11.7-9.9l-9-7.5c-2.4-2-4.8-4-7.2-6-6.7-5.8-13.4-11.6-20.2-17.3-5.7-4.8-11.4-9.5-17.1-14.3-5-4.2-9.9-8.5-14.9-12.8-3.1-2.7-6.2-5.3-9.3-7.9-2.2-1.9-2.5-2.7-.7-5,3.3-4.2,6.5-8.5,10-12.5,5.2-6,10.6-11.9,16-17.8.5-.6,1.1-1.1,1.8-1.6.2-.4.7-.6,1.3-.8h0Z"/>
		<path class="cls-4" d="m176.5,100.8c.7.7,1.4,1.2,1.9,1.8,1.8,2.7,3.5,5.4,5.2,8.1,3.3,5.3,6.7,10.5,10,15.8,2.7,4.3,5.3,8.6,8,12.8,3.6,5.7,7.2,11.3,10.8,17,3.2,5.1,6.4,10.3,9.6,15.5,3.2,5.1,6.6,10.2,9.8,15.3,3.6,5.7,7.2,11.3,10.7,17,3.1,5,6.2,10.1,9.4,15.1,2.9,4.7,5.9,9.3,8.9,13.9,1.6,2.6,1.3,3.4-1,5.4-3.9,3.4-7.7,7-11.5,10.5-.4.3-.6.7-1,1-1.4,1.1-2.3,1-3.5-.3-8.5-9.8-16.9-19.6-25.4-29.4-5.8-6.7-11.5-13.5-17.3-20.2-4.5-5.3-9.2-10.5-13.7-15.7-5.7-6.7-11.4-13.4-17.1-20-2.7-3.1-5.4-6.1-8.1-9.2-2.8-3.2-5.5-6.4-8.3-9.6-3.4-3.9-6.7-7.9-10.2-11.8-2.9-3.3-3-3.7.2-6.5,6-5.3,12-10.5,18.2-15.6,3.9-3.3,8-6.3,12.1-9.4.6-.6,1.4-1,2.3-1.5h0Z"/>
		<path class="cls-4" d="m222.9,72.4c1.9-.1,2.5.8,2.9,1.7,1.8,4,3.6,8,5.3,12,1.4,3.1,2.8,6.3,4.2,9.4.8,1.9,1.6,3.8,2.4,5.7,2.5,5.9,5,11.7,7.6,17.6,4.1,9.3,8.2,18.5,12.3,27.8,2.1,4.7,4,9.4,6.1,14.1,2.3,5.2,4.8,10.3,7.1,15.5,1.8,3.9,3.4,7.9,5,11.9,1.8,4.3,3.7,8.7,5.6,13,2,4.6,4,9.2,6,13.8,1.1,2.7,1,3.1-1.3,4.8-1.3.9-2.8,1.6-4.1,2.4-3.1,2.1-6.2,4.2-9.3,6.3-.6.4-1.2.9-1.8,1.2-.9.4-1.7.3-2.3-.6-.2-.3-.5-.7-.7-1-4.8-7.7-9.6-15.5-14.4-23.2-3.9-6.2-7.8-12.4-11.7-18.6-5.4-8.5-10.8-17-16.2-25.5-3.8-6-7.6-12-11.4-18-3-4.9-6-9.8-9-14.7-3.9-6.2-7.8-12.5-11.7-18.7-2.6-4.1-5.3-8.2-7.9-12.3-1-1.6-.9-2.4.7-3.4,6.2-3.9,12.5-7.8,18.8-11.5,5-3,10.1-5.8,15.2-8.6.9-.4,2.1-.8,2.6-1.1h0Z"/>
		<path class="cls-4" d="m273.8,51.6c1.4-.1,2.1.3,2.4,1.3.7,2,1.4,4.1,2,6.1,1.4,5,2.6,10,3.9,15,2,7.3,4.1,14.6,6.1,21.9s3.9,14.6,5.9,21.9c2.5,9.1,5.1,18.1,7.6,27.2,1.5,5.5,2.9,11,4.3,16.4,2,7.6,4.1,15.1,6.1,22.7,1.6,5.9,3.3,11.8,4.9,17.8.8,3,.6,3.1-2.2,4.2-5.1,2.1-10.2,4.2-15.2,6.4-2.5,1.1-2.7,1.1-3.9-1.5-1.6-3.4-3.1-6.8-4.6-10.3-2.7-6.2-5.4-12.5-8.1-18.7-4-9.2-8.1-18.4-12.1-27.6-3.9-9-7.9-18-11.8-27-2.9-6.6-5.8-13.1-8.7-19.7-2.3-5.3-4.5-10.6-6.9-15.8-1-2.1-2.3-4-3.4-6.1-.5-.8-1-1.7-1.2-2.6-.7-4.5-2.8-8.4-4.7-12.5-.1-.3-.3-.5-.5-.8-.9-2-.6-2.9,1.4-3.8,6-2.6,12-5.3,18.1-7.6,6.2-2.4,12.5-4.5,18.7-6.7.9,0,1.6-.1,1.9-.2h0Z"/>
		<path class="cls-4" d="m328.4,201.9c-1.5.1-2-.8-2.3-1.8-.8-2.4-1.5-4.9-2.2-7.3-1.7-6.3-3.3-12.7-5-19-2.4-8.8-4.9-17.5-7.3-26.3-1.5-5.6-2.9-11.3-4.5-16.9-2.3-8.2-4.6-16.5-6.9-24.7-1.5-5.3-2.8-10.7-4.2-16-2.3-8.7-4.7-17.4-7-26.2-1.2-4.2-2.4-8.4-3.6-12.7-.6-2.3-.2-3,2.1-3.6,8.4-2.4,16.8-4.6,25.4-5.9,3.9-.6,7.7-1.3,11.6-1.9.9-.2,1.8-.6,2.8-.8,1.8-.4,2.6.1,2.9,1.9,1,7.8,2,15.5,3,23.3.6,5.2,1.2,10.3,1.8,15.5.5,4,.9,8.1,1.4,12.1s1.2,7.9,1.7,11.8c.5,3.5.8,7,1.2,10.5.6,4.9,1.2,9.8,1.7,14.7.3,2.7.6,5.4,1,8.1.9,7.2,1.7,14.4,2.6,21.6.7,6.3,1.5,12.5,2.2,18.8.6,4.8,1.1,9.5,1.6,14.3.1,1.2.5,2.3.7,3.5.4,1.8-.1,2.6-1.9,2.9-6,.9-12,2-17.7,4-.5,0-.9.1-1.1.1h0Z"/>
		<path class="cls-5" d="m381,42.1c6,.3,15.1.8,24.2,1.3,1.3.1,2.6.1,3.8.2,3.4.2,4.3,1.2,3.9,4.5-.3,2.6-.5,5.2-.8,7.9-.5,4.5-1,9-1.5,13.6-.5,4.8-.9,9.5-1.4,14.3-.4,3.3-.9,6.6-1.2,10-1,10-2,20-3,30.1-.6,6-1.1,12.1-1.7,18.1-.5,4.6-1.2,9.2-1.9,13.7,0,.2-.1.5-.1.7-.4,5.1-.7,10.2-1.2,15.3-.4,4.4-1,8.9-1.5,13.3-.2,1.6-.3,3.2-.4,4.8-.1,1.2-.1,2.4-.3,3.6-.3,1.7-1.1,2.4-2.8,2.4-1.9,0-3.8-.3-5.7-.4-1.2-.1-2.4-.5-3.5-.4-3.1.4-6.2-.2-9.3,0-2.4.1-4.7.5-7.1.6-3.3.2-6.5.3-9.8.4-1.2,0-1.7-.7-1.9-1.7-.3-1.7-.6-3.5-.8-5.2-.6-4.8-1.2-9.7-1.7-14.5,0-.2,0-.3-.1-.5-1.4-12.3-2.9-24.6-4.3-36.9-.8-6.7-1.4-13.3-2.2-20-.4-3.6-1.1-7.3-1.6-10.9-.4-2.7-.6-5.4-.9-8.1-.5-4.2-.9-8.4-1.3-12.6-.5-4.3-1.1-8.5-1.6-12.8v-.2c-1-8.2-1.9-16.5-2.8-24.7-.3-2.4.4-2.9,2.7-3.3,11.3-2.2,23-2.1,37.8-2.6h0Z"/>
		<path class="cls-3" d="m423.5,201.2c1.5.1,2-.8,2.4-1.8.8-2.4,1.6-4.9,2.3-7.3,1.8-6.3,3.4-12.6,5.2-18.9,2.5-8.8,5.1-17.5,7.6-26.2,1.6-5.6,3-11.3,4.6-16.9,2.3-8.2,4.8-16.4,7.1-24.6,1.5-5.3,2.9-10.6,4.4-15.9,2.4-8.7,4.8-17.4,7.3-26.1,1.2-4.2,2.5-8.4,3.7-12.6.6-2.3.2-3-2.1-3.7-8.3-2.4-16.7-4.7-25.3-6.2-3.9-.6-7.7-1.3-11.5-2-.9-.2-1.8-.6-2.7-.8-1.8-.4-2.6.1-2.9,1.8-1.1,7.7-2.2,15.5-3.2,23.2-.7,5.1-1.3,10.3-2,15.5-.5,4-.9,8.1-1.5,12.1-.5,3.9-1.3,7.9-1.8,11.8-.5,3.5-.9,7-1.3,10.5-.6,4.9-1.2,9.8-1.9,14.7-.3,2.7-.7,5.4-1,8.1-.9,7.2-1.8,14.4-2.8,21.6-.8,6.3-1.6,12.5-2.4,18.8-.6,4.8-1.1,9.5-1.8,14.3-.2,1.2-.5,2.3-.7,3.5-.4,1.8.1,2.6,1.9,2.9,6,1,11.9,2.1,17.7,4.1.1,0,.5,0,.7.1h0Z"/>
		<path class="cls-3" d="m478.8,50.9c-1.4-.1-2.1.3-2.4,1.3-.7,2-1.4,4.1-2,6.1-1.4,5-2.6,10-3.9,15-2,7.3-4.1,14.6-6.1,21.9s-3.9,14.6-5.9,21.9c-2.5,9.1-5.1,18.1-7.6,27.2-1.5,5.5-2.9,11-4.3,16.4-2,7.6-4.1,15.1-6.1,22.7-1.6,5.9-3.3,11.8-4.9,17.8-.8,3-.6,3.1,2.2,4.2,5.1,2.1,10.2,4.2,15.2,6.4,2.5,1.1,2.7,1.1,3.9-1.5,1.6-3.4,3.1-6.8,4.6-10.3,2.7-6.2,5.4-12.5,8.1-18.7,4-9.2,8.1-18.4,12.1-27.6,3.9-9,7.9-18,11.8-27,2.9-6.6,5.8-13.1,8.7-19.7,2.3-5.3,4.5-10.6,6.9-15.8,1-2.1,2.3-4,3.4-6.1.5-.8,1-1.7,1.2-2.6.7-4.5,2.8-8.4,4.7-12.5.1-.3.3-.5.5-.8.9-2,.6-2.9-1.4-3.8-6-2.6-12-5.3-18.1-7.6-6.2-2.4-12.5-4.5-18.7-6.7-.9,0-1.6-.1-1.9-.2h0Z"/>
		<path class="cls-3" d="m529.7,71.8c-1.9-.1-2.5.8-2.9,1.7-1.8,4-3.6,8-5.3,12-1.4,3.1-2.8,6.3-4.2,9.4-.8,1.9-1.6,3.8-2.4,5.7-2.5,5.9-5,11.7-7.6,17.6-4.1,9.3-8.2,18.5-12.3,27.8-2.1,4.7-4,9.4-6.1,14.1-2.3,5.2-4.8,10.3-7.1,15.5-1.8,3.9-3.4,7.9-5,11.9-1.8,4.3-3.7,8.7-5.6,13-2,4.6-4,9.2-6,13.8-1.1,2.7-1,3.1,1.3,4.8,1.3.9,2.8,1.6,4.1,2.4,3.1,2.1,6.2,4.2,9.3,6.3.6.4,1.2.9,1.8,1.2.9.4,1.7.3,2.3-.6.2-.3.5-.7.7-1,4.8-7.7,9.6-15.5,14.4-23.2,3.9-6.2,7.8-12.4,11.7-18.6,5.4-8.5,10.8-17,16.2-25.5,3.8-6,7.6-12,11.4-18,3-4.9,6-9.8,9-14.7,3.9-6.2,7.8-12.5,11.7-18.7,2.6-4.1,5.3-8.2,7.9-12.3,1-1.6.9-2.4-.7-3.4-6.2-3.9-12.5-7.8-18.8-11.5-5-3-10.1-5.8-15.2-8.6-.9-.5-2.1-.9-2.6-1.1h0Z"/>
		<path class="cls-3" d="m576.1,100.1c-.7.7-1.4,1.2-1.9,1.8-1.8,2.7-3.5,5.4-5.2,8.1-3.3,5.3-6.7,10.5-10,15.8-2.7,4.3-5.3,8.6-8,12.8-3.6,5.7-7.2,11.3-10.8,17-3.2,5.1-6.4,10.3-9.6,15.5-3.2,5.1-6.6,10.2-9.8,15.3-3.6,5.7-7.2,11.3-10.7,17-3.1,5-6.2,10.1-9.4,15.1-2.9,4.7-5.9,9.3-8.9,13.9-1.6,2.6-1.3,3.4,1,5.4,3.9,3.4,7.7,7,11.5,10.5.4.3.6.7,1,1,1.4,1.1,2.3,1,3.5-.3,8.5-9.8,16.9-19.6,25.4-29.4,5.8-6.7,11.5-13.5,17.3-20.2,4.5-5.3,9.2-10.5,13.7-15.7,5.7-6.7,11.4-13.4,17.1-20,2.7-3.1,5.4-6.1,8.1-9.2,2.8-3.2,5.5-6.4,8.3-9.6,3.4-3.9,6.7-7.9,10.2-11.8,2.9-3.3,3-3.7-.2-6.5-6-5.3-12-10.5-18.2-15.6-3.9-3.3-8-6.3-12.1-9.4-.6-.6-1.4-.9-2.3-1.5h0Z"/>
		<path class="cls-3" d="m618.2,136.9c-.7.5-1.4,1-2,1.6-2.1,2.4-4.2,4.8-6.3,7.2-3,3.4-6,6.7-8.9,10.1-2.8,3.3-5.5,6.6-8.3,9.9-3.5,4-7,7.9-10.5,11.8-5.1,5.8-10.1,11.7-15.2,17.6-1.8,2.1-3.6,4.1-5.3,6.1-8.4,9.6-16.8,19.3-25.2,28.9-3.9,4.5-7.7,9-11.5,13.5-3.2,3.7-6.6,7.4-9.8,11.2-2,2.4-2,2.6-.1,5.2,2.6,3.5,5.4,6.9,8,10.4.9,1.1,1.7,2.4,2.6,3.5,1.1,1.4,1.8,1.5,3.2.3,5.3-4.5,10.6-9,15.9-13.4,4.1-3.5,8.3-7,12.4-10.5,3.9-3.3,7.8-6.6,11.7-9.9l9-7.5c2.4-2,4.8-4,7.2-6,6.7-5.8,13.4-11.6,20.2-17.3,5.7-4.8,11.4-9.5,17.1-14.3,5-4.2,9.9-8.5,14.9-12.8,3.1-2.7,6.2-5.3,9.3-7.9,2.2-1.9,2.5-2.7.7-5-3.3-4.2-6.5-8.5-10-12.5-5.2-6-10.6-11.9-16-17.8-.5-.6-1.1-1.1-1.8-1.6-.2-.4-.7-.5-1.3-.8h0Z"/>
		<path class="cls-3" d="m532.4,284c.1.2.2.8.5,1.3,3.1,5.1,5.8,10.5,8.3,15.9,1,2.1,1.6,2.2,3.7.9,5-3,10-5.9,15-8.9,4.9-2.9,9.8-6,14.8-8.9,4.8-2.9,9.6-5.7,14.4-8.6,3.6-2.1,7.1-4.2,10.7-6.4,6.3-3.8,12.6-7.5,18.9-11.3,9.6-5.8,19.3-11.7,28.9-17.5,4.4-2.7,9-5.2,13.4-7.9,5.5-3.3,10.9-6.6,16.4-10,2.1-1.3,2.3-2,1.1-4.1-3.8-6.8-7.6-13.5-11.5-20.2-3.2-5.4-6.8-10.6-10.2-15.9-1.5-2.3-2.6-2.5-4.6-.8-7.7,6.5-15.3,13.1-23,19.5-3.2,2.7-6.5,5.1-9.7,7.8-4.3,3.6-8.6,7.4-12.9,11.1-3.7,3.2-7.5,6.2-11.2,9.3-2.8,2.4-5.6,4.8-8.4,7.2-3.3,2.8-6.6,5.5-9.9,8.3-4.5,3.8-9,7.6-13.5,11.4-3.4,2.9-6.9,5.7-10.3,8.6-3,2.6-6.1,5.2-9.1,7.8-3.3,2.8-6.7,5.7-10,8.5-.9.8-1.8,1.4-1.8,2.9h0Z"/>
		<path class="cls-3" d="m546.1,313c.2.7.3,1.4.5,2.1,1.6,4.9,3.2,9.7,4.7,14.6,1.2,3.8,1.4,3.9,5.1,2.4,1.7-.7,3.4-1.3,5.2-1.9,7.2-2.8,14.5-5.5,21.7-8.3,7.7-3,15.4-6.1,23.2-9.1,3.1-1.2,6.3-2.3,9.4-3.5,6.9-2.7,13.8-5.5,20.7-8.2,3-1.2,6.1-2.3,9.2-3.5,8.6-3.3,17.1-6.7,25.7-10,6.7-2.6,13.4-5.2,20.1-7.8,2.6-1,5.2-2.1,7.7-3.2,2.2-1,2.6-1.6,1.8-3.9-2.8-8.1-5.6-16.1-8.6-24.1-1.6-4.2-3.5-8.3-5.3-12.3-.8-1.8-1.6-3.5-2.5-5.2-.7-1.4-1.4-1.5-2.7-.7-8,4.8-16,9.6-24,14.4-4.9,2.9-9.8,5.6-14.7,8.5-4.9,2.9-9.8,6-14.7,9-5,3-10.1,5.9-15.1,8.9s-10,6.1-15,9c-5.1,3.1-10.3,6-15.5,9.1-5.3,3.2-10.6,6.5-16,9.7-6.4,3.8-12.7,7.7-19.1,11.4-1.1.6-1.8,1.3-1.8,2.6h0Z"/>
		<path class="cls-3" d="m715.5,338.2c-.4-3.3-.8-6.9-1.4-10.4-1.1-6.8-2.3-13.5-3.6-20.3-.6-3-1.4-5.9-2.1-8.8-.9-3.6-1.8-7.3-2.7-10.9-.1-.4-.2-.8-.3-1.1-.9-2.5-1.2-2.5-3.7-1.5-3.1,1.2-6.3,2.3-9.4,3.5-6.9,2.7-13.8,5.4-20.7,8.1-4.2,1.6-8.5,3.1-12.8,4.8-6,2.3-12,4.8-18,7.1-4.4,1.7-8.8,3.3-13.2,5-5.8,2.3-11.6,4.6-17.3,6.9-4.4,1.7-8.8,3.3-13.2,5-6.1,2.4-12.2,4.8-18.2,7.2-3.3,1.3-6.6,2.5-9.9,3.7-4,1.5-8,3.1-12,4.7-2.1.8-2.4,1.7-2,3.9.6,3.6,1.1,7.2,1.6,10.9.3,2.4.6,4.7,1,7.1.2,1.4,1.2,1.9,2.9,1.7,1.9-.2,3.8-.4,5.7-.8,3.1-.5,6.3-1.1,9.4-1.6,1.9-.3,3.8-.6,5.7-.9,3.2-.4,6.3-.8,9.5-1.3,2.3-.3,4.6-.6,6.9-1,5.7-.9,11.5-1.9,17.2-2.9,2.8-.4,5.5-.8,8.3-1.2,6.6-1,13.1-1.9,19.7-2.8,3.2-.4,6.3-.8,9.5-1.3,1.7-.3,3.4-.7,5.2-1,5.6-.9,11.2-1.8,16.8-2.6,2.7-.4,5.4-.7,8.1-1.1,4.3-.7,8.6-1.4,13-2.1,3.1-.5,6.2-.9,9.2-1.3,2.7-.4,5.4-.8,8.1-1.1.3,0,.6-.1.9-.2,1.5-.6,1.9-1.1,1.8-3.4h0Z"/>
		<path class="cls-3" d="m717.6,377.9c0-6.1.1-12.2,0-18.2-.1-2.8-.5-5.6-.9-8.3-.2-1.3-.9-1.7-2.2-1.7-.4,0-.8.1-1.2.2-5.1.7-10.3,1.4-15.4,2.2-1.5.2-3,.6-4.5.8-5.5.9-11,1.7-16.5,2.6-5,.8-9.9,1.5-14.9,2.3-5.5.8-11,1.7-16.6,2.5-2.3.3-4.6.5-6.9.8-7.1,1.1-14.2,2.4-21.3,3.5-7.6,1.1-15.2,2.1-22.8,3.2-4.7.7-9.3,1.6-13.9,2.3-3.5.6-7.1,1-10.7,1.5-3.1.4-6.2.8-9.2,1.3-2.5.4-3.2,1.2-3.2,3.7-.2,5.9-.2,11.8-.3,17.7,0,1.9.5,2.4,2.3,2.7,8,1.5,16,3.1,24,4.5,4.6.9,9.3,1.5,13.9,2.4,2.7.5,5.3,1.1,7.9,1.6,3.2.6,6.4,1.1,9.7,1.7,4.3.8,8.6,1.6,12.9,2.3,6.2,1.1,12.4,2.3,18.6,3.4,4.4.8,8.8,1.6,13.2,2.4,5.3,1,10.5,1.9,15.8,2.9,4.1.7,8.2,1.5,12.2,2.3,2.6.5,5.2.9,7.8,1.4,4.9.9,9.9,1.8,14.8,2.7.4.1.8.2,1.2.2,1.9.2,2.7-.3,3-2.2.4-2.4.7-4.9,1-7.4.6-4.8,1.1-9.6,1.7-14.5.2-1.9.3-3.8.3-5.7.2-5.6.2-11.3.2-17.1h0Z"/>
		<path class="cls-3" d="m557.6,405.6c-1.5,0-1.8.4-2.2,1.8-1.6,6.9-3.2,13.9-4.7,20.8-.1.6-.3,1.2-.5,1.9-.5,2.4-.1,3.5,2,4.8,1.5,1,3.1,1.9,4.7,2.9,6,4,12,8,17.9,12,4.3,2.9,8.6,5.9,12.9,8.8,4.6,3.1,9.2,6,13.8,9.1,5.7,3.7,11.3,7.5,17,11.3,6.7,4.4,13.3,8.8,20,13.2,6.1,4.1,12.3,8.1,18.4,12.2,7.3,4.9,14.6,9.8,21.9,14.7,1.3.9,2.7,1.8,4,2.6,1.5.9,2.3.8,3.1-.8,1.5-3.2,2.9-6.4,4.3-9.6,3.8-8.5,6.8-17.4,10-26.2,1.2-3.4,2.2-6.8,3.2-10.3,2-7.4,4.1-14.8,5.9-22.2,1.2-5,2.2-10.1,3.2-15.2.5-2.5.2-3.2-2.3-3.8-2.5-.7-5.1-1.1-7.7-1.6-6.1-1.1-12.1-2.1-18.2-3.1-1.8-.3-3.6-.8-5.4-1.1-9-1.6-18.1-3.2-27.1-4.8-6.4-1.2-12.9-2.5-19.3-3.6-4.8-.9-9.6-1.6-14.4-2.5-5.5-1-11-2.1-16.5-3.2-4.5-.8-9-1.6-13.4-2.4-3.1-.6-6.3-1.2-9.4-1.8-6.4-1.2-12.7-2.3-19.1-3.4-.8-.4-1.5-.5-2.1-.5h0Z"/>
	</g>
	<g id="pitches">
		<g id="60">
			<path class="cls-2" d="m348.73,249.25v53.86l-17.01,17.01-5.67-5.67v-73.7l22.68,8.5h0Zm-22.68,155.9v-73.7l5.67-5.67,17.01,17.01v53.86l-22.68,8.5h0Zm107.71,19.84h-93.54c-7.56-1.89-12.29-6.61-14.17-14.17l22.68-8.5h76.53l8.5,22.68h0Zm-8.5-181.41h-76.25l-22.68-8.5c1.89-7.56,6.61-12.28,14.17-14.17h93.26l-8.5,22.68h0Z"/>
		</g>
		<g id="61" style="display: none;">
			<path class="cls-2" d="m479.54,309.01l4.65,4.65-4.65,4.66h-4.66l-4.65-4.66,4.65-4.65h4.66Zm0,18.5l4.65,4.65-4.65,4.65h-4.66l-4.65-4.65,4.65-4.65h4.66Zm2.33-27.93l4.65-4.65,4.65,4.65v6.98l-4.65,4.65-4.65-4.65v-6.98Zm0,20.95l4.65-4.66,4.65,4.66v4.65l-4.65,4.65-4.65-4.65v-4.65Zm0,18.62l4.65-4.66,4.65,4.66v7.1l-4.65,4.65-4.65-4.65v-7.1Zm16.29-30.25l4.65,4.65-4.65,4.65h-4.66l-4.65-4.65,4.65-4.65h4.66Zm0,18.62l4.65,4.65-4.65,4.65h-4.66l-4.65-4.65,4.65-4.65h4.66Zm2.33-27.93l4.65-4.65,4.65,4.65v6.98l-4.65,4.65-4.65-4.65v-6.98Zm0,20.95l4.65-4.66,4.65,4.66v4.65l-4.65,4.65-4.65-4.65v-4.65Zm0,18.5l4.65-4.65,4.65,4.65v7.1l-4.65,4.65-4.65-4.65v-7.1Zm16.29-30.14l4.65,4.65-4.65,4.65h-4.66l-4.65-4.65,4.65-4.65h4.66Zm0,18.73l4.65,4.65-4.65,4.66h-4.66l-4.65-4.66,4.65-4.65h4.66Z"/>
			<path class="cls-2" d="m348.73,249.25v53.86l-17.01,17.01-5.67-5.67v-73.7l22.68,8.5h0Zm-22.68,155.9v-73.7l5.67-5.67,17.01,17.01v53.86l-22.68,8.5h0Zm107.71,19.84h-93.54c-7.56-1.89-12.29-6.61-14.17-14.17l22.68-8.5h76.53l8.5,22.68h0Zm-8.5-181.41h-76.25l-22.68-8.5c1.89-7.56,6.61-12.28,14.17-14.17h93.26l-8.5,22.68h0Z"/>
		</g>
		<g id="62" style="display: none;">
			<path class="cls-2" d="m416.76,243.58h-68.03l-22.68-8.5v-14.17h90.71l11.34,11.34-11.34,11.34h0Zm-68.03,5.67v53.86l-17.01,17.01-5.67-5.67v-73.7l22.68,8.5h0Zm-22.68,155.9v-73.7l5.67-5.67,17.01,17.01v53.86l-22.68,8.5h0Zm101.76,8.5l-11.34,11.34h-90.42v-14.17l22.68-8.5h67.75l11.34,11.34h-.01Zm-5.39-110.55v-59.53l8.5-8.5,14.17,14.17v65.2l-5.67,5.67-17.01-17.01h.01Zm17.01,22.68l5.67,5.67v65.2l-14.17,14.17-8.5-8.5v-59.53l17.01-17.01h-.01Z"/>
		</g>
		<g id="63" style="display: none;">
			<path class="cls-2" d="m479.54,309.01l4.65,4.65-4.65,4.66h-4.66l-4.65-4.66,4.65-4.65h4.66Zm0,18.5l4.65,4.65-4.65,4.65h-4.66l-4.65-4.65,4.65-4.65h4.66Zm2.33-27.93l4.65-4.65,4.65,4.65v6.98l-4.65,4.65-4.65-4.65v-6.98Zm0,20.95l4.65-4.66,4.65,4.66v4.65l-4.65,4.65-4.65-4.65v-4.65Zm0,18.62l4.65-4.66,4.65,4.66v7.1l-4.65,4.65-4.65-4.65v-7.1Zm16.29-30.25l4.65,4.65-4.65,4.65h-4.66l-4.65-4.65,4.65-4.65h4.66Zm0,18.62l4.65,4.65-4.65,4.65h-4.66l-4.65-4.65,4.65-4.65h4.66Zm2.33-27.93l4.65-4.65,4.65,4.65v6.98l-4.65,4.65-4.65-4.65v-6.98Zm0,20.95l4.65-4.66,4.65,4.66v4.65l-4.65,4.65-4.65-4.65v-4.65Zm0,18.5l4.65-4.65,4.65,4.65v7.1l-4.65,4.65-4.65-4.65v-7.1Zm16.29-30.14l4.65,4.65-4.65,4.65h-4.66l-4.65-4.65,4.65-4.65h4.66Zm0,18.73l4.65,4.65-4.65,4.66h-4.66l-4.65-4.66,4.65-4.65h4.66Z"/>
			<path class="cls-2" d="m416.76,243.58h-68.03l-22.68-8.5v-14.17h90.71l11.34,11.34-11.34,11.34h0Zm-68.03,5.67v53.86l-17.01,17.01-5.67-5.67v-73.7l22.68,8.5h0Zm-22.68,155.9v-73.7l5.67-5.67,17.01,17.01v53.86l-22.68,8.5h0Zm101.76,8.5l-11.34,11.34h-90.42v-14.17l22.68-8.5h67.75l11.34,11.34h-.01Zm-5.39-110.55v-59.53l8.5-8.5,14.17,14.17v65.2l-5.67,5.67-17.01-17.01h.01Zm17.01,22.68l5.67,5.67v65.2l-14.17,14.17-8.5-8.5v-59.53l17.01-17.01h-.01Z"/>
		</g>
	    <g id="64" style="display: none;">
			<path class="cls-2" d="m348.73,249.25v53.86l-17.01,17.01-5.67-5.67v-73.7l22.68,8.5h0Zm-22.68,155.9v-73.7l5.67-5.67,17.01,17.01v53.86l-22.68,8.5h0Zm107.71,19.84h-93.54c-7.56-1.89-12.29-6.61-14.17-14.17l22.68-8.5h76.53l8.5,22.68h0Zm-8.5-181.41h-76.25l-22.68-8.5c1.89-7.56,6.61-12.28,14.17-14.17h93.26l-8.5,22.68h0Zm-2.83,68.03l11.34,11.34-11.34,11.34h-73.7l-11.34-11.34,11.34-11.34h73.7,0Z"/>
		</g>
		<g id="65" style="display: none;">
			<path class="cls-2" d="m348.73,249.92v53.86l-17.01,17.01-5.67-5.67v-73.7l22.68,8.5h0Zm0,93.54v59.53l-8.5,22.68c-7.56-1.89-12.29-6.61-14.17-14.17v-79.37l5.67-5.67,17.01,17.01h-.01Zm76.53-99.21h-76.25l-22.68-8.5c1.89-7.56,6.61-12.28,14.17-14.17h93.26l-8.5,22.68h0Zm-2.83,68.03l11.34,11.34-11.34,11.34h-73.7l-11.34-11.34,11.34-11.34h73.7,0Z"/>
		</g>
		<g id="66" style="display: none;">
			<path class="cls-2" d="m479.54,309.01l4.65,4.65-4.65,4.66h-4.66l-4.65-4.66,4.65-4.65h4.66Zm0,18.5l4.65,4.65-4.65,4.65h-4.66l-4.65-4.65,4.65-4.65h4.66Zm2.33-27.93l4.65-4.65,4.65,4.65v6.98l-4.65,4.65-4.65-4.65v-6.98Zm0,20.95l4.65-4.66,4.65,4.66v4.65l-4.65,4.65-4.65-4.65v-4.65Zm0,18.62l4.65-4.66,4.65,4.66v7.1l-4.65,4.65-4.65-4.65v-7.1Zm16.29-30.25l4.65,4.65-4.65,4.65h-4.66l-4.65-4.65,4.65-4.65h4.66Zm0,18.62l4.65,4.65-4.65,4.65h-4.66l-4.65-4.65,4.65-4.65h4.66Zm2.33-27.93l4.65-4.65,4.65,4.65v6.98l-4.65,4.65-4.65-4.65v-6.98Zm0,20.95l4.65-4.66,4.65,4.66v4.65l-4.65,4.65-4.65-4.65v-4.65Zm0,18.5l4.65-4.65,4.65,4.65v7.1l-4.65,4.65-4.65-4.65v-7.1Zm16.29-30.14l4.65,4.65-4.65,4.65h-4.66l-4.65-4.65,4.65-4.65h4.66Zm0,18.73l4.65,4.65-4.65,4.66h-4.66l-4.65-4.66,4.65-4.65h4.66Z"/>
			<path class="cls-2" d="m348.73,249.92v53.86l-17.01,17.01-5.67-5.67v-73.7l22.68,8.5h0Zm0,93.54v59.53l-8.5,22.68c-7.56-1.89-12.29-6.61-14.17-14.17v-79.37l5.67-5.67,17.01,17.01h-.01Zm76.53-99.21h-76.25l-22.68-8.5c1.89-7.56,6.61-12.28,14.17-14.17h93.26l-8.5,22.68h0Zm-2.83,68.03l11.34,11.34-11.34,11.34h-73.7l-11.34-11.34,11.34-11.34h73.7,0Z"/>
		</g>
		<g id="67" style="display: none;">
			<path class="cls-2" d="m348.73,249.25v53.86l-17.01,17.01-5.67-5.67v-73.7l22.68,8.5h0Zm-22.68,155.9v-73.7l5.67-5.67,17.01,17.01v53.86l-22.68,8.5h0Zm99.21,19.84h-85.04c-7.56-1.89-12.29-6.61-14.17-14.17l22.68-8.5h68.03l8.5,22.68h0Zm0-181.41h-76.25l-22.68-8.5c1.89-7.56,6.61-12.28,14.17-14.17h93.26l-8.5,22.68h0Zm-2.83,68.03l11.34,11.34-11.34,11.34h-25.51l-11.34-11.34,11.34-11.34h25.51Zm17.01,14.17l5.67,5.67v79.37c-1.89,7.56-6.62,12.29-14.17,14.17l-8.5-22.68v-59.53l17.01-17.01h-.01Z"/>
		</g>
		<g id="68" style="display: none;">
			<path class="cls-2" d="m479.54,309.01l4.65,4.65-4.65,4.66h-4.66l-4.65-4.66,4.65-4.65h4.66Zm0,18.5l4.65,4.65-4.65,4.65h-4.66l-4.65-4.65,4.65-4.65h4.66Zm2.33-27.93l4.65-4.65,4.65,4.65v6.98l-4.65,4.65-4.65-4.65v-6.98Zm0,20.95l4.65-4.66,4.65,4.66v4.65l-4.65,4.65-4.65-4.65v-4.65Zm0,18.62l4.65-4.66,4.65,4.66v7.1l-4.65,4.65-4.65-4.65v-7.1Zm16.29-30.25l4.65,4.65-4.65,4.65h-4.66l-4.65-4.65,4.65-4.65h4.66Zm0,18.62l4.65,4.65-4.65,4.65h-4.66l-4.65-4.65,4.65-4.65h4.66Zm2.33-27.93l4.65-4.65,4.65,4.65v6.98l-4.65,4.65-4.65-4.65v-6.98Zm0,20.95l4.65-4.66,4.65,4.66v4.65l-4.65,4.65-4.65-4.65v-4.65Zm0,18.5l4.65-4.65,4.65,4.65v7.1l-4.65,4.65-4.65-4.65v-7.1Zm16.29-30.14l4.65,4.65-4.65,4.65h-4.66l-4.65-4.65,4.65-4.65h4.66Zm0,18.73l4.65,4.65-4.65,4.66h-4.66l-4.65-4.66,4.65-4.65h4.66Z"/>
			<path class="cls-2" d="m348.73,249.25v53.86l-17.01,17.01-5.67-5.67v-73.7l22.68,8.5h0Zm-22.68,155.9v-73.7l5.67-5.67,17.01,17.01v53.86l-22.68,8.5h0Zm99.21,19.84h-85.04c-7.56-1.89-12.29-6.61-14.17-14.17l22.68-8.5h68.03l8.5,22.68h0Zm0-181.41h-76.25l-22.68-8.5c1.89-7.56,6.61-12.28,14.17-14.17h93.26l-8.5,22.68h0Zm-2.83,68.03l11.34,11.34-11.34,11.34h-25.51l-11.34-11.34,11.34-11.34h25.51Zm17.01,14.17l5.67,5.67v79.37c-1.89,7.56-6.62,12.29-14.17,14.17l-8.5-22.68v-59.53l17.01-17.01h-.01Z"/>
		</g>
		<g id="69" style="display: none;">
			<path class="cls-2" d="m348.73,249.25v53.86l-17.01,17.01-5.67-5.67v-73.7l22.68,8.5h0Zm0,93.54v59.53l-8.5,22.68c-7.56-1.89-12.29-6.61-14.17-14.17v-79.37l5.67-5.67,17.01,17.01h-.01Zm68.03-99.21h-67.75l-22.68-8.5c1.89-7.56,6.61-12.28,14.17-14.17h84.75l-8.5,22.68h0Zm5.67,68.03l11.34,11.34-11.34,11.34h-73.7l-11.34-11.34,11.34-11.34h73.7,0Zm0-8.5v-59.53l8.5-22.68c7.56,1.89,12.28,6.62,14.17,14.17v79.37l-5.67,5.67-17.01-17.01h.01Zm17.01,22.68l5.67,5.67v79.37c-1.89,7.56-6.62,12.29-14.17,14.17l-8.5-22.68v-59.53l17.01-17.01h-.01Z"/>
		</g>
		<g id="70" style="display: none;">
			<path class="cls-2" d="m479.54,309.01l4.65,4.65-4.65,4.66h-4.66l-4.65-4.66,4.65-4.65h4.66Zm0,18.5l4.65,4.65-4.65,4.65h-4.66l-4.65-4.65,4.65-4.65h4.66Zm2.33-27.93l4.65-4.65,4.65,4.65v6.98l-4.65,4.65-4.65-4.65v-6.98Zm0,20.95l4.65-4.66,4.65,4.66v4.65l-4.65,4.65-4.65-4.65v-4.65Zm0,18.62l4.65-4.66,4.65,4.66v7.1l-4.65,4.65-4.65-4.65v-7.1Zm16.29-30.25l4.65,4.65-4.65,4.65h-4.66l-4.65-4.65,4.65-4.65h4.66Zm0,18.62l4.65,4.65-4.65,4.65h-4.66l-4.65-4.65,4.65-4.65h4.66Zm2.33-27.93l4.65-4.65,4.65,4.65v6.98l-4.65,4.65-4.65-4.65v-6.98Zm0,20.95l4.65-4.66,4.65,4.66v4.65l-4.65,4.65-4.65-4.65v-4.65Zm0,18.5l4.65-4.65,4.65,4.65v7.1l-4.65,4.65-4.65-4.65v-7.1Zm16.29-30.14l4.65,4.65-4.65,4.65h-4.66l-4.65-4.65,4.65-4.65h4.66Zm0,18.73l4.65,4.65-4.65,4.66h-4.66l-4.65-4.66,4.65-4.65h4.66Z"/>
			<path class="cls-2" d="m348.73,249.25v53.86l-17.01,17.01-5.67-5.67v-73.7l22.68,8.5h0Zm0,93.54v59.53l-8.5,22.68c-7.56-1.89-12.29-6.61-14.17-14.17v-79.37l5.67-5.67,17.01,17.01h-.01Zm68.03-99.21h-67.75l-22.68-8.5c1.89-7.56,6.61-12.28,14.17-14.17h84.75l-8.5,22.68h0Zm5.67,68.03l11.34,11.34-11.34,11.34h-73.7l-11.34-11.34,11.34-11.34h73.7,0Zm0-8.5v-59.53l8.5-22.68c7.56,1.89,12.28,6.62,14.17,14.17v79.37l-5.67,5.67-17.01-17.01h.01Zm17.01,22.68l5.67,5.67v79.37c-1.89,7.56-6.62,12.29-14.17,14.17l-8.5-22.68v-59.53l17.01-17.01h-.01Z"/>
		</g>
		<g id="71" style="display: none;">
			<path class="cls-2" d="m416.76,243.58h-68.03l-22.68-8.5v-14.17h90.71l11.34,11.34-11.34,11.34h0Zm-68.03,5.67v53.86l-17.01,17.01-5.67-5.67v-73.7l22.68,8.5h0Zm-22.68,155.9v-73.7l5.67-5.67,17.01,17.01v53.86l-22.68,8.5h0Zm101.76,8.5l-11.34,11.34h-90.42v-14.17l22.68-8.5h67.75l11.34,11.34h-.01Zm-5.39-102.05l11.34,11.34-11.34,11.34h-73.7l-11.34-11.34,11.34-11.34h73.7,0Zm0-8.5v-59.53l8.5-8.5,14.17,14.17v65.2l-5.67,5.67-17.01-17.01h.01Zm17.01,22.68l5.67,5.67v65.2l-14.17,14.17-8.5-8.5v-59.53l17.01-17.01h-.01Z"/>
		</g>
	</g>
</svg>
